<svg width="210" height="297" xmlns="http://www.w3.org/2000/svg" xmlns:svg="http://www.w3.org/2000/svg">
 <defs>
  <style type="text/css">.fil0 {fill:black;fill-rule:nonzero}</style>
 </defs>
 <metadata id="metadata5">image/svg+xml</metadata>
 <g class="layer">
  <title>Layer 1</title>
  <g id="layer1">
   <path d="m45.72795,265.10778l-1.30609,-162.97842c0,0 1.95914,-75.35561 60.08039,-74.47938c58.12124,0.87623 58.7743,61.33595 58.7743,61.33595l1.30609,179.62677l-118.85469,-3.50492z" fill="#ffccaa" id="path866" stroke-miterlimit="4" stroke-width="0.374"/>
   <path d="m59.16487,134.80665c0,0 -2.04017,8.16067 9.18075,12.75105c11.22093,4.59038 28.05231,3.5703 33.66277,3.5703c5.61046,0 46.41382,-7.14059 46.41382,-13.77114c0,-6.63054 9.18076,-64.77533 0.51004,-75.99625c-8.67071,-11.22092 -27.03222,-25.5021 -43.86361,-24.99205c-16.83138,0.51004 -42.33348,14.79121 -47.4339,28.56235c-5.10042,13.77113 1.53013,69.87574 1.53013,69.87574z" fill="#ffe6d5" id="path2359" stroke="#000000" stroke-width="0.26458px"/>
  </g>
 </g>
</svg>