<svg xmlns="http://www.w3.org/2000/svg" xmlns:xlink="http://www.w3.org/1999/xlink" version="1.1" x="0px" y="0px" viewBox="0 0 100 125" enable-background="new 0 0 100 100" xml:space="preserve"><path d="M77.8128052,10.8427734c-2.03125-0.71875-5.125-0.7397461-8.3310547,3.2319336  c-2.5039063,3.1025391-3.8837891,7.1621094-3.8837891,11.4301758v15.2666016c0,2.3266602,1.4003906,4.3764648,3.5673828,5.2216797  l1.8330078,0.7158203c1.5712891,0.6137695,3.2158203,0.9199219,4.8603516,0.9199219  c1.7304688,0,3.4599609-0.3393555,5.1005859-1.0170898l1.4365234-0.5927734  c2.1054688-0.8696289,3.4658203-2.9033203,3.4658203-5.1811523V24.2294922  C85.8616333,19.2524414,82.4192505,12.4702148,77.8128052,10.8427734z M83.9612427,40.8378906  c0,1.5058594-0.8994141,2.8500977-2.2900391,3.425293l-1.4365234,0.5927734  c-2.7460938,1.1328125-5.78125,1.1630859-8.5449219,0.0834961l-1.8330078-0.7163086  c-1.4326172-0.5585938-2.3583984-1.9135742-2.3583984-3.4516602V25.5048828c0-3.8354492,1.2294922-7.4707031,3.4619141-10.2368164  c2.0146484-2.4956055,4.1054688-3.3818359,6.2197266-2.6337891c3.7568359,1.3271484,6.78125,7.4282227,6.78125,11.5952148  V40.8378906z M17.5778198,46.0073242l1.8339844,0.7158203c1.546875,0.6040039,3.1679688,0.9057617,4.7871094,0.9057617  c1.7050781,0,3.4082031-0.3339844,5.0244141-1.0014648l1.4355469-0.5927734  c2.0302734-0.8388672,3.3427734-2.800293,3.3427734-4.996582V24.4296875c0-4.8105469-3.4580078-11.6235352-7.9160156-13.1982422  c-1.9707031-0.6962891-4.9765625-0.7104492-8.1083984,3.1689453c-2.4755859,3.065918-3.8388672,7.0805664-3.8388672,11.3046875  v15.2666016C14.1383667,43.2148438,15.4879761,45.1918945,17.5778198,46.0073242z M27.3998413,44.1191406  c-1.3391113,0-2.4248047-1.0854492-2.4248047-2.4248047c0-1.3391113,1.0856934-2.4248047,2.4248047-2.4248047  s2.4248047,1.0856934,2.4248047,2.4248047C29.824646,43.0336914,28.7389526,44.1191406,27.3998413,44.1191406z   M30.2789917,30.1049805c-0.5632324,1.2148438-2.0046387,1.7434082-3.2197266,1.1804199  c-1.2150879-0.5632324-1.7436523-2.0046387-1.1804199-3.2194824c0.5629883-1.215332,2.0043945-1.7436523,3.2194824-1.1806641  S30.84198,28.8898926,30.2789917,30.1049805z M25.1454468,16.9213867c0.6113281-1.1916504,2.0727539-1.6621094,3.2644043-1.0507813  c1.1914063,0.6113281,1.6618652,2.0727539,1.0505371,3.2644043s-2.0727539,1.6618652-3.2644043,1.0505371  C25.0045776,19.5742188,24.5341187,18.112793,25.1454468,16.9213867z M22.1622925,36.0688477  c0,1.3391113-1.0856934,2.4248047-2.4248047,2.4248047c-1.3393555,0-2.4248047-1.0856934-2.4248047-2.4248047  c0-1.3393555,1.0854492-2.4248047,2.4248047-2.4248047C21.0765991,33.644043,22.1622925,34.7294922,22.1622925,36.0688477z   M18.4765015,22.9748535c1.3391113,0,2.4248047,1.0856934,2.4248047,2.4248047s-1.0856934,2.4248047-2.4248047,2.4248047  s-2.4248047-1.0856934-2.4248047-2.4248047S17.1373901,22.9748535,18.4765015,22.9748535z M39.9682617,40.9716797V25.7050781  c0-4.2226563,1.3632813-8.2373047,3.8388672-11.3046875c3.1318359-3.8793945,6.1376953-3.8652344,8.1083984-3.1689453  c4.4580078,1.574707,7.9160156,8.3876953,7.9160156,13.1982422v16.6083984c0,2.1967773-1.3115234,4.1577148-3.3417969,4.996582  l-1.4365234,0.5927734c-1.6162109,0.6674805-3.3193359,1.0014648-5.0244141,1.0014648  c-1.6191406,0-3.2402344-0.3017578-4.7871094-0.9057617l-1.8330078-0.7158203  C41.3188477,45.1918945,39.9682617,43.215332,39.9682617,40.9716797z M77.8839722,54.9135742  c-1.8955078-0.6694336-4.7900391-0.675293-7.8300781,3.090332c-2.4404297,3.0229492-3.7841797,6.9819336-3.7841797,11.1474609  v15.2666016c0,2.1396484,1.2880859,4.0249023,3.28125,4.8032227l1.8330078,0.715332  c1.5185547,0.5927734,3.1083984,0.8886719,4.6972656,0.8886719c1.671875,0,3.3427734-0.3276367,4.9277344-0.9824219  l1.4365234-0.5932617c1.9365234-0.7998047,3.1875-2.6699219,3.1875-4.7651367V67.8759766  C85.6329956,63.1474609,82.24823,56.4550781,77.8839722,54.9135742z M81.1505737,69.6811523c0-0.4140625,0.3359375-0.75,0.75-0.75  s0.75,0.3359375,0.75,0.75v6.1474609c0,0.4140625-0.3359375,0.75-0.75,0.75s-0.75-0.3359375-0.75-0.75V69.6811523z   M81.1505737,79.4501953c0-0.4140625,0.3359375-0.75,0.75-0.75s0.75,0.3359375,0.75,0.75v3.3930664  c0,0.4140625-0.3359375,0.75-0.75,0.75s-0.75-0.3359375-0.75-0.75V79.4501953z M14.3670044,77.3239746h19.8491211v5.7783203  H14.3670044V77.3239746z M31.9309692,59.8234863H16.711731c0.4418945-0.7790527,0.9345703-1.5244141,1.4926758-2.2155762  c3.1318359-3.878418,6.137207-3.8625488,8.1000977-3.166748C28.5320435,55.2280273,30.5100708,57.3234863,31.9309692,59.8234863z   M14.3670044,69.5646973h19.8491211v5.777832H14.3670044V69.5646973z M15.7527466,61.8051758h17.1523438  c0.8234863,1.9533691,1.300293,3.9995117,1.309082,5.7780762H14.4204712  C14.5584106,65.5600586,15.0144653,63.6088867,15.7527466,61.8051758z M14.4480591,85.0837402h19.7006836  c-0.2880859,1.8422852-1.5065918,3.4191895-3.2705078,4.1474609l-1.435791,0.5930176  c-1.6149902,0.6672363-3.317627,1.0009766-5.0217285,1.0009766c-1.6186523,0-3.2382813-0.3015137-4.7844238-0.9050293  l-1.8334961-0.7160645C16.0039673,88.5024414,14.7588501,86.9372559,14.4480591,85.0837402z M52.2039795,54.0390625  c-2.03125-0.71875-5.1240234-0.7397461-8.3310547,3.2319336c-2.5039063,3.1025391-3.8837891,7.1621094-3.8837891,11.4301758  v15.2670898c0,2.3261719,1.4003906,4.3759766,3.5673828,5.2216797l1.8330078,0.715332  c1.5712891,0.6137695,3.2167969,0.9199219,4.8613281,0.9199219c1.7304688,0,3.4599609-0.3393555,5.0996094-1.0170898  l1.4365234-0.5927734c2.1064453-0.8696289,3.4667969-2.9033203,3.4667969-5.1811523V67.4257813  C60.2537842,62.4487305,56.8114014,55.6665039,52.2039795,54.0390625z M58.3533936,84.0341797  c0,1.5058594-0.8994141,2.8500977-2.2910156,3.425293l-1.4365234,0.5927734  c-2.7460938,1.1333008-5.7802734,1.1621094-8.5449219,0.0834961l-1.8330078-0.715332  c-1.4326172-0.5595703-2.3583984-1.9145508-2.3583984-3.4521484V70.0214844  c2.3198242-2.0974121,5.1694336-3.3339844,8.2509766-3.3105469c3.0874023,0.0234375,5.9228516,1.3085938,8.2128906,3.4487305  V84.0341797z"/><text x="0" y="115" fill="#000000" font-size="5px" font-weight="bold" font-family="'Helvetica Neue', Helvetica, Arial-Unicode, Arial, Sans-serif">Created by Llisole</text><text x="0" y="120" fill="#000000" font-size="5px" font-weight="bold" font-family="'Helvetica Neue', Helvetica, Arial-Unicode, Arial, Sans-serif">from the Noun Project</text></svg>